<svg width="24" height="24" viewBox="0 0 24 24" fill="none" xmlns="http://www.w3.org/2000/svg">
<path d="M16.6004 14.0001C16.4004 13.9001 15.1004 13.3001 14.9004 13.2001C14.7004 13.1001 14.5004 13.1001 14.3004 13.3001C14.1004 13.5001 13.7004 14.1001 13.5004 14.3001C13.4004 14.5001 13.2004 14.5001 13.0004 14.4001C12.3004 14.1001 11.6004 13.7001 11.0004 13.2001C10.5004 12.7001 10.0004 12.1001 9.6004 11.5001C9.5004 11.3001 9.6004 11.1001 9.7004 11.0001C9.8004 10.9001 9.9004 10.7001 10.1004 10.6001C10.2004 10.5001 10.3004 10.3001 10.3004 10.2001C10.4004 10.1001 10.4004 9.9001 10.3004 9.8001C10.2004 9.7001 9.7004 8.5001 9.5004 8.0001C9.4004 7.3001 9.2004 7.3001 9.0004 7.3001C8.9004 7.3001 8.7004 7.3001 8.5004 7.3001C8.3004 7.3001 8.0004 7.5001 7.9004 7.6001C7.3004 8.2001 7.0004 8.9001 7.0004 9.7001C7.1004 10.6001 7.4004 11.5001 8.0004 12.3001C9.1004 13.9001 10.5004 15.2001 12.2004 16.0001C12.7004 16.2001 13.1004 16.4001 13.6004 16.5001C14.1004 16.7001 14.6004 16.7001 15.2004 16.6001C15.9004 16.5001 16.5004 16.0001 16.9004 15.4001C17.1004 15.0001 17.1004 14.6001 17.0004 14.2001C17.0004 14.2001 16.8004 14.1001 16.6004 14.0001ZM19.1004 4.9001C15.2004 1.0001 8.9004 1.0001 5.0004 4.9001C1.8004 8.1001 1.2004 13.0001 3.4004 16.9001L2.0004 22.0001L7.3004 20.6001C8.8004 21.4001 10.4004 21.8001 12.0004 21.8001C17.5004 21.8001 21.9004 17.4001 21.9004 11.9001C22.0004 9.3001 20.9004 6.8001 19.1004 4.9001ZM16.4004 18.9001C15.1004 19.7001 13.6004 20.2001 12.0004 20.2001C10.5004 20.2001 9.1004 19.8001 7.8004 19.1001L7.5004 18.9001L4.4004 19.7001L5.2004 16.7001L5.0004 16.4001C2.6004 12.4001 3.8004 7.4001 7.7004 4.9001C11.6004 2.4001 16.6004 3.7001 19.0004 7.5001C21.4004 11.4001 20.3004 16.5001 16.4004 18.9001Z" fill="#05406B"/>
</svg>
