<svg width="24" height="24" viewBox="0 0 24 24" fill="none" xmlns="http://www.w3.org/2000/svg">
<mask id="mask0_2317_8" style="mask-type:luminance" maskUnits="userSpaceOnUse" x="0" y="3" width="20" height="21">
<path d="M0 3.23633H19.9859V23.9999H0V3.23633Z" fill="white"/>
</mask>
<g mask="url(#mask0_2317_8)">
<path d="M4.85538 3.42947C5.01235 3.51851 5.04586 3.69043 5.11817 3.84559C5.2037 4.02896 5.3157 4.20793 5.41093 4.38866C5.62698 4.79772 5.84303 5.20679 6.05996 5.61585C6.48854 6.42429 6.91711 7.23184 7.3448 8.04027C7.40917 8.16105 7.47354 8.28536 7.48501 8.42025C7.51587 8.78435 6.92328 9.19253 6.64727 9.36268C5.94533 9.79379 5.26631 10.1147 4.78395 10.82C4.709 10.9302 4.63933 11.0483 4.61111 11.1788C4.54321 11.5006 4.85802 11.9449 4.99559 12.2244C5.17725 12.5964 5.37213 12.9605 5.58113 13.3176C6.00088 14.0343 6.47531 14.7202 7 15.3647C8.37742 17.0538 10.1217 18.4617 12.1429 19.3125C12.2822 19.3716 13.1464 18.4547 13.2734 18.3075C13.5961 17.9319 13.8748 17.5228 14.2346 17.1799C14.724 16.7118 15.1261 16.5205 15.7249 16.9348C16.9197 17.7618 18.1393 18.5526 19.3827 19.3054C21.0926 20.3422 18.6102 22.9712 17.5035 23.4428C15.0661 24.4822 12.1808 23.5821 9.98677 22.3796C5.55379 19.9508 2.12169 15.7711 0.611995 10.9646C0.25397 9.82376 -0.0017616 8.62742 0.116404 7.43725C0.291007 5.68286 1.46208 4.1612 3.15168 3.60403C3.60318 3.45504 4.07848 3.37569 4.55467 3.37305C4.6455 3.37305 4.73898 3.37569 4.82187 3.41272C4.83333 3.41801 4.8448 3.4233 4.85538 3.42947Z" fill="#143965"/>
</g>
<mask id="mask1_2317_8" style="mask-type:luminance" maskUnits="userSpaceOnUse" x="11" y="0" width="13" height="13">
<path d="M11.821 0H24V12.3839H11.821V0Z" fill="white"/>
</mask>
<g mask="url(#mask1_2317_8)">
<path d="M22.9621 7.103C22.3783 5.80703 21.5749 4.63185 20.5741 3.61007C19.5741 2.58829 18.4144 1.7587 17.127 1.14333C15.8016 0.51034 14.3836 0.12684 12.9136 0.00341548C12.6032 -0.0221511 12.3069 0.0712992 12.0996 0.260845C11.94 0.407192 11.8527 0.596737 11.8527 0.794217C11.8527 1.23678 12.2557 1.61852 12.7716 1.6626C17.9197 2.09371 22.0326 6.29015 22.328 11.4238V11.4246C22.358 11.9377 22.731 12.3486 23.1764 12.3609C23.1958 12.3609 23.2143 12.3609 23.2337 12.36C23.4118 12.3494 23.582 12.2683 23.7187 12.1282C23.9144 11.9271 24.0159 11.6353 23.9973 11.3259C23.9118 9.85978 23.5635 8.43863 22.9621 7.103Z" fill="#143965"/>
</g>
<path d="M17.8174 6.28326C17.022 5.47042 16.1014 4.80833 15.0794 4.31463C14.0282 3.80682 12.903 3.49385 11.7354 3.38542C11.4462 3.35809 11.1693 3.44272 10.9771 3.61728C10.8324 3.74864 10.7522 3.91967 10.7531 4.09687L10.7504 4.25027V4.25292C10.7513 4.4548 10.8421 4.64876 11.007 4.79687C11.1596 4.9344 11.3607 5.02168 11.5767 5.04284C15.5511 5.41311 18.6376 8.55957 18.8986 12.5242C18.9206 12.7384 18.9982 12.9429 19.1323 13.0981C19.2769 13.2665 19.47 13.3617 19.6728 13.367L19.8298 13.3696C19.8465 13.3696 19.8642 13.3696 19.8809 13.3687C20.0414 13.359 20.1949 13.2859 20.3174 13.1589C20.4982 12.972 20.5908 12.6987 20.5705 12.4104C20.492 11.2458 20.2063 10.1182 19.724 9.05856C19.254 8.02972 18.6129 7.0961 17.8174 6.28326Z" fill="#143965"/>
<path d="M16.172 10.9416C15.8545 10.2637 15.4277 9.6483 14.9013 9.1114C14.3757 8.5745 13.7681 8.13282 13.097 7.79957C12.4057 7.45751 11.6667 7.23887 10.8986 7.15071C10.6402 7.12073 10.3854 7.19302 10.217 7.34466C10.0944 7.4531 10.0282 7.59327 10.0282 7.7405L10.0229 8.13634V8.13987C10.0247 8.30914 10.1006 8.47135 10.2381 8.59566C10.3625 8.70939 10.5291 8.78344 10.7055 8.8046C13.0432 9.07261 14.8924 10.961 15.1005 13.2946H15.1014C15.1173 13.4709 15.187 13.6376 15.2981 13.7645C15.4198 13.9047 15.5811 13.9849 15.7513 13.9902L16.1526 13.9955C16.1667 13.9955 16.1808 13.9955 16.1949 13.9946C16.3272 13.9867 16.4533 13.9259 16.5547 13.8183C16.7108 13.6543 16.7901 13.4031 16.7672 13.1456C16.6984 12.3786 16.4983 11.6372 16.172 10.9416Z" fill="#143965"/>
</svg>
